STARTFONT 2.1
COMMENT
COMMENT  Copyright (c) 1999, Thomas A. Fine
COMMENT
COMMENT  License to copy and distribute for both commercial and
COMMENT  non-commercial use is herby granted, provided this notice
COMMENT  is preserved.
COMMENT
COMMENT  fine@head-cfa.harvard.edu
COMMENT  http://hea-www.harvard.edu/~fine/
COMMENT
COMMENT  Produced with bdfedit, a tcl/tk font editing program
COMMENT  written by Thomas A. Fine
COMMENT
FONT -Fine-Cursive-Medium-I-Normal--13-130-72-72-C-120-ISO8859-1
SIZE 13 72 72
FONTBOUNDINGBOX 9 15 0 -4
STARTPROPERTIES 10
FOUNDRY "Fine"
FAMILY_NAME "Cursive"
WEIGHT_NAME "Medium"
SLANT "I"
SETWIDTH_NAME "Normal"
SPACING "c"
CHARSET_REGISTRY "ISO-8859"
CHARSET_ENCODING "1"
FONT_ASCENT  11
FONT_DESCENT 4
ENDPROPERTIES
CHARS 100
STARTCHAR C040
ENCODING 32
SWIDTH 692 0
DWIDTH 9 0
BBX 9 15 0 -4
BITMAP
0000
0000
0000
0000
0000
0000
0000
0000
0000
0000
0000
0000
0000
0000
0000
ENDCHAR
STARTCHAR C041
ENCODING 33
SWIDTH 692 0
DWIDTH 9 0
BBX 9 15 0 -4
BITMAP
0000
0400
0400
0400
0800
0800
0800
1000
1000
0000
2000
0000
0000
0000
0000
ENDCHAR
STARTCHAR C042
ENCODING 34
SWIDTH 692 0
DWIDTH 9 0
BBX 9 15 0 -4
BITMAP
0000
1400
1400
2800
2800
0000
0000
0000
0000
0000
0000
0000
0000
0000
0000
ENDCHAR
STARTCHAR C043
ENCODING 35
SWIDTH 692 0
DWIDTH 9 0
BBX 9 15 0 -4
BITMAP
0000
1100
1100
1100
7f80
2200
2200
ff00
4400
8800
8800
0000
0000
0000
0000
ENDCHAR
STARTCHAR C044
ENCODING 36
SWIDTH 692 0
DWIDTH 9 0
BBX 9 15 0 -4
BITMAP
0500
1f00
2580
2a00
2a00
1e00
1500
1500
5500
6900
3e00
2800
0000
0000
0000
ENDCHAR
STARTCHAR C045
ENCODING 37
SWIDTH 692 0
DWIDTH 9 0
BBX 9 15 0 -4
BITMAP
0000
3180
5f00
5200
6400
0800
0800
1300
2500
2500
4600
0000
0000
0000
0000
ENDCHAR
STARTCHAR C046
ENCODING 38
SWIDTH 692 0
DWIDTH 9 0
BBX 9 15 0 -4
BITMAP
0800
1400
1400
0c00
0800
1800
2500
4600
4400
4a00
3100
0000
0000
0000
0000
ENDCHAR
STARTCHAR C047
ENCODING 39
SWIDTH 692 0
DWIDTH 9 0
BBX 9 15 0 -4
BITMAP
0000
1000
1000
2000
0000
0000
0000
0000
0000
0000
0000
0000
0000
0000
0000
ENDCHAR
STARTCHAR C050
ENCODING 40
SWIDTH 692 0
DWIDTH 9 0
BBX 9 15 0 -4
BITMAP
0000
0200
0400
0800
0800
1000
1000
1000
0800
0800
0400
0000
0000
0000
0000
ENDCHAR
STARTCHAR C051
ENCODING 41
SWIDTH 692 0
DWIDTH 9 0
BBX 9 15 0 -4
BITMAP
0000
1000
0800
0800
0400
0400
0400
0800
0800
1000
2000
0000
0000
0000
0000
ENDCHAR
STARTCHAR C052
ENCODING 42
SWIDTH 692 0
DWIDTH 9 0
BBX 9 15 0 -4
BITMAP
0000
0000
0000
0a00
0400
0800
7f00
0800
1000
2800
0000
0000
0000
0000
0000
ENDCHAR
STARTCHAR C053
ENCODING 43
SWIDTH 692 0
DWIDTH 9 0
BBX 9 15 0 -4
BITMAP
0000
0000
0000
0400
0400
0800
7f00
0800
1000
1000
0000
0000
0000
0000
0000
ENDCHAR
STARTCHAR C054
ENCODING 44
SWIDTH 692 0
DWIDTH 9 0
BBX 9 15 0 -4
BITMAP
0000
0000
0000
0000
0000
0000
0000
0000
0000
0000
1000
1000
2000
0000
0000
ENDCHAR
STARTCHAR C055
ENCODING 45
SWIDTH 692 0
DWIDTH 9 0
BBX 9 15 0 -4
BITMAP
0000
0000
0000
0000
0000
0000
7e00
0000
0000
0000
0000
0000
0000
0000
0000
ENDCHAR
STARTCHAR C056
ENCODING 46
SWIDTH 692 0
DWIDTH 9 0
BBX 9 15 0 -4
BITMAP
0000
0000
0000
0000
0000
0000
0000
0000
0000
2000
3000
0000
0000
0000
0000
ENDCHAR
STARTCHAR C057
ENCODING 47
SWIDTH 692 0
DWIDTH 9 0
BBX 9 15 0 -4
BITMAP
0000
0100
0200
0200
0400
0800
0800
1000
2000
2000
4000
0000
0000
0000
0000
ENDCHAR
STARTCHAR C060
ENCODING 48
SWIDTH 692 0
DWIDTH 9 0
BBX 9 15 0 -4
BITMAP
0000
0e00
1100
2100
2100
2100
4200
4200
4200
4400
3800
0000
0000
0000
0000
ENDCHAR
STARTCHAR C061
ENCODING 49
SWIDTH 692 0
DWIDTH 9 0
BBX 9 15 0 -4
BITMAP
0000
0400
0c00
3400
0800
0800
0800
1000
1000
1000
3800
0000
0000
0000
0000
ENDCHAR
STARTCHAR C062
ENCODING 50
SWIDTH 692 0
DWIDTH 9 0
BBX 9 15 0 -4
BITMAP
0000
1c00
2200
4100
0100
0100
0200
0200
3400
4c00
3300
0000
0000
0000
0000
ENDCHAR
STARTCHAR C063
ENCODING 51
SWIDTH 692 0
DWIDTH 9 0
BBX 9 15 0 -4
BITMAP
0000
0e00
1100
0100
0100
0600
0100
0100
0100
2200
1c00
0000
0000
0000
0000
ENDCHAR
STARTCHAR C064
ENCODING 52
SWIDTH 692 0
DWIDTH 9 0
BBX 9 15 0 -4
BITMAP
0000
1100
1100
1100
2200
2200
7f00
0200
0400
0400
0400
0000
0000
0000
0000
ENDCHAR
STARTCHAR C065
ENCODING 53
SWIDTH 692 0
DWIDTH 9 0
BBX 9 15 0 -4
BITMAP
0000
1f80
1000
2000
3e00
2100
0100
0100
0100
4200
3c00
0000
0000
0000
0000
ENDCHAR
STARTCHAR C066
ENCODING 54
SWIDTH 692 0
DWIDTH 9 0
BBX 9 15 0 -4
BITMAP
0000
0300
0400
0800
1000
2e00
5100
6100
4100
4200
3c00
0000
0000
0000
0000
ENDCHAR
STARTCHAR C067
ENCODING 55
SWIDTH 692 0
DWIDTH 9 0
BBX 9 15 0 -4
BITMAP
0000
7f00
0100
0200
0400
0800
1000
1000
2000
4000
4000
0000
0000
0000
0000
ENDCHAR
STARTCHAR C070
ENCODING 56
SWIDTH 692 0
DWIDTH 9 0
BBX 9 15 0 -4
BITMAP
0000
1e00
2100
2200
1c00
0c00
1200
2200
4200
4400
3800
0000
0000
0000
0000
ENDCHAR
STARTCHAR C071
ENCODING 57
SWIDTH 692 0
DWIDTH 9 0
BBX 9 15 0 -4
BITMAP
0000
1e00
2100
4100
4100
4700
3a00
0400
0800
1000
6000
0000
0000
0000
0000
ENDCHAR
STARTCHAR C072
ENCODING 58
SWIDTH 692 0
DWIDTH 9 0
BBX 9 15 0 -4
BITMAP
0000
0000
0000
0000
1800
3000
0000
0000
0000
1800
3000
0000
0000
0000
0000
ENDCHAR
STARTCHAR C073
ENCODING 59
SWIDTH 692 0
DWIDTH 9 0
BBX 9 15 0 -4
BITMAP
0000
0000
0000
0000
1800
3000
0000
0000
0000
1000
1000
2000
0000
0000
0000
ENDCHAR
STARTCHAR C074
ENCODING 60
SWIDTH 692 0
DWIDTH 9 0
BBX 9 15 0 -4
BITMAP
0000
0000
0000
0400
0800
1000
2000
1000
0800
0400
0000
0000
0000
0000
0000
ENDCHAR
STARTCHAR C075
ENCODING 61
SWIDTH 692 0
DWIDTH 9 0
BBX 9 15 0 -4
BITMAP
0000
0000
0000
0000
0000
3f00
0000
0000
0000
7e00
0000
0000
0000
0000
0000
ENDCHAR
STARTCHAR C076
ENCODING 62
SWIDTH 692 0
DWIDTH 9 0
BBX 9 15 0 -4
BITMAP
0000
0000
0000
1000
0800
0400
0200
0400
0800
1000
0000
0000
0000
0000
0000
ENDCHAR
STARTCHAR C077
ENCODING 63
SWIDTH 692 0
DWIDTH 9 0
BBX 9 15 0 -4
BITMAP
0000
1e00
2100
4100
4100
0200
0400
0800
0800
0000
1000
0000
0000
0000
0000
ENDCHAR
STARTCHAR C100
ENCODING 64
SWIDTH 692 0
DWIDTH 9 0
BBX 9 15 0 -4
BITMAP
0000
0000
0e00
1100
2080
4e80
5280
5500
4e00
2000
1e00
0000
0000
0000
0000
ENDCHAR
STARTCHAR C101
ENCODING 65
SWIDTH 692 0
DWIDTH 9 0
BBX 9 15 0 -4
BITMAP
0000
0e80
1180
2100
2100
4300
4200
4200
4400
4680
3b00
0000
0000
0000
0000
ENDCHAR
STARTCHAR C102
ENCODING 66
SWIDTH 692 0
DWIDTH 9 0
BBX 9 15 0 -4
BITMAP
0000
2600
5900
1100
2200
2e00
2100
2100
4100
6100
5e00
0000
0000
0000
0000
ENDCHAR
STARTCHAR C103
ENCODING 67
SWIDTH 692 0
DWIDTH 9 0
BBX 9 15 0 -4
BITMAP
0000
0e00
1100
2100
2100
4000
4000
4000
4000
2080
1f00
0000
0000
0000
0000
ENDCHAR
STARTCHAR C104
ENCODING 68
SWIDTH 692 0
DWIDTH 9 0
BBX 9 15 0 -4
BITMAP
0000
1300
1480
1880
1880
2880
2900
2900
6500
6280
5d00
0000
0000
0000
0000
ENDCHAR
STARTCHAR C105
ENCODING 69
SWIDTH 692 0
DWIDTH 9 0
BBX 9 15 0 -4
BITMAP
0000
0f00
1080
1100
1c00
2a00
4400
4000
4000
2080
1f00
0000
0000
0000
0000
ENDCHAR
STARTCHAR C106
ENCODING 70
SWIDTH 692 0
DWIDTH 9 0
BBX 9 15 0 -4
BITMAP
0000
3180
4f80
0200
0200
0200
0f00
0400
0400
2400
1800
0000
0000
0000
0000
ENDCHAR
STARTCHAR C107
ENCODING 71
SWIDTH 692 0
DWIDTH 9 0
BBX 9 15 0 -4
BITMAP
0000
1000
2880
2980
1e80
1080
1080
2100
2100
6280
9f00
0000
0000
0000
0000
ENDCHAR
STARTCHAR C110
ENCODING 72
SWIDTH 692 0
DWIDTH 9 0
BBX 9 15 0 -4
BITMAP
0000
2080
5100
1100
1100
3a00
3600
3200
4f80
4400
4400
0000
0000
0000
0000
ENDCHAR
STARTCHAR C111
ENCODING 73
SWIDTH 692 0
DWIDTH 9 0
BBX 9 15 0 -4
BITMAP
0000
0600
0900
1100
1100
1100
0a00
0a00
7e00
2780
1a00
0000
0000
0000
0000
ENDCHAR
STARTCHAR C112
ENCODING 74
SWIDTH 692 0
DWIDTH 9 0
BBX 9 15 0 -4
BITMAP
0000
0600
0900
1100
1100
1100
0a00
0a00
0a00
0f80
3400
4400
4400
4800
3000
ENDCHAR
STARTCHAR C113
ENCODING 75
SWIDTH 692 0
DWIDTH 9 0
BBX 9 15 0 -4
BITMAP
0000
2080
5100
1100
1100
2a00
3c00
2400
4400
4280
4100
0000
0000
0000
0000
ENDCHAR
STARTCHAR C114
ENCODING 76
SWIDTH 692 0
DWIDTH 9 0
BBX 9 15 0 -4
BITMAP
0000
0800
5400
3800
1000
1000
2000
2000
2000
f880
c700
0000
0000
0000
0000
ENDCHAR
STARTCHAR C115
ENCODING 77
SWIDTH 692 0
DWIDTH 9 0
BBX 9 15 0 -4
BITMAP
0000
5b00
a480
2480
2480
4900
4900
4900
9200
9280
9100
0000
0000
0000
0000
ENDCHAR
STARTCHAR C116
ENCODING 78
SWIDTH 692 0
DWIDTH 9 0
BBX 9 15 0 -4
BITMAP
0000
2700
5880
1080
1080
2100
2100
2100
4200
4280
4100
0000
0000
0000
0000
ENDCHAR
STARTCHAR C117
ENCODING 79
SWIDTH 692 0
DWIDTH 9 0
BBX 9 15 0 -4
BITMAP
0000
0e00
1500
2500
2380
4100
4100
4100
4100
4200
3c00
0000
0000
0000
0000
ENDCHAR
STARTCHAR C120
ENCODING 80
SWIDTH 692 0
DWIDTH 9 0
BBX 9 15 0 -4
BITMAP
0000
2f00
5880
1080
1100
2100
3e00
2000
4000
4000
4000
0000
0000
0000
0000
ENDCHAR
STARTCHAR C121
ENCODING 81
SWIDTH 692 0
DWIDTH 9 0
BBX 9 15 0 -4
BITMAP
0000
1c00
2200
4100
4100
4100
4200
4200
1400
2c80
1300
0000
0000
0000
0000
ENDCHAR
STARTCHAR C122
ENCODING 82
SWIDTH 692 0
DWIDTH 9 0
BBX 9 15 0 -4
BITMAP
0000
2f00
5880
1080
1100
2900
3e00
2400
4400
4280
4100
0000
0000
0000
0000
ENDCHAR
STARTCHAR C123
ENCODING 83
SWIDTH 692 0
DWIDTH 9 0
BBX 9 15 0 -4
BITMAP
0000
0400
0a00
0a00
0400
0a00
0900
1100
2100
5280
8f00
0000
0000
0000
0000
ENDCHAR
STARTCHAR C124
ENCODING 84
SWIDTH 692 0
DWIDTH 9 0
BBX 9 15 0 -4
BITMAP
0000
3180
4f80
0200
0200
0200
0400
0400
0400
2400
1800
0000
0000
0000
0000
ENDCHAR
STARTCHAR C125
ENCODING 85
SWIDTH 692 0
DWIDTH 9 0
BBX 9 15 0 -4
BITMAP
0000
2080
5100
1100
1100
2200
2200
2200
4400
4480
3b00
0000
0000
0000
0000
ENDCHAR
STARTCHAR C126
ENCODING 86
SWIDTH 692 0
DWIDTH 9 0
BBX 9 15 0 -4
BITMAP
0000
2080
5100
1100
1100
1200
1200
2200
2400
2800
1000
0000
0000
0000
0000
ENDCHAR
STARTCHAR C127
ENCODING 87
SWIDTH 692 0
DWIDTH 9 0
BBX 9 15 0 -4
BITMAP
0000
4480
a900
2900
2900
2a00
2a00
7600
6400
4400
4400
0000
0000
0000
0000
ENDCHAR
STARTCHAR C130
ENCODING 88
SWIDTH 692 0
DWIDTH 9 0
BBX 9 15 0 -4
BITMAP
0000
2080
5100
1100
1200
0c00
0800
1400
2400
2480
4300
0000
0000
0000
0000
ENDCHAR
STARTCHAR C131
ENCODING 89
SWIDTH 692 0
DWIDTH 9 0
BBX 9 15 0 -4
BITMAP
0000
2080
5100
1100
1100
1100
2200
2200
2200
1f80
3400
4400
4400
4800
3000
ENDCHAR
STARTCHAR C132
ENCODING 90
SWIDTH 692 0
DWIDTH 9 0
BBX 9 15 0 -4
BITMAP
0000
1800
2400
2400
4400
4400
4e00
4900
2100
0f80
1900
2100
2200
2400
1800
ENDCHAR
STARTCHAR C133
ENCODING 91
SWIDTH 692 0
DWIDTH 9 0
BBX 9 15 0 -4
BITMAP
0300
0c00
0800
0800
1000
1000
1000
2000
2000
4000
6000
1800
0000
0000
0000
ENDCHAR
STARTCHAR C134
ENCODING 92
SWIDTH 692 0
DWIDTH 9 0
BBX 9 15 0 -4
BITMAP
0000
2000
2000
1000
1000
0800
0800
0400
0400
0200
0200
0000
0000
0000
0000
ENDCHAR
STARTCHAR C135
ENCODING 93
SWIDTH 692 0
DWIDTH 9 0
BBX 9 15 0 -4
BITMAP
0c00
0300
0100
0200
0200
0200
0400
0400
0400
0800
1800
6000
0000
0000
0000
ENDCHAR
STARTCHAR C136
ENCODING 94
SWIDTH 692 0
DWIDTH 9 0
BBX 9 15 0 -4
BITMAP
0000
0000
0400
1a00
6100
0000
0000
0000
0000
0000
0000
0000
0000
0000
0000
ENDCHAR
STARTCHAR C137
ENCODING 95
SWIDTH 692 0
DWIDTH 9 0
BBX 9 15 0 -4
BITMAP
0000
0000
0000
0000
0000
0000
0000
0000
0000
0000
0000
db00
0000
0000
0000
ENDCHAR
STARTCHAR C140
ENCODING 96
SWIDTH 692 0
DWIDTH 9 0
BBX 9 15 0 -4
BITMAP
0000
0400
0400
0200
0000
0000
0000
0000
0000
0000
0000
0000
0000
0000
0000
ENDCHAR
STARTCHAR C141
ENCODING 97
SWIDTH 692 0
DWIDTH 9 0
BBX 9 15 0 -4
BITMAP
0000
0000
0000
0000
0000
1d00
3300
6100
a200
2380
1c00
0000
0000
0000
0000
ENDCHAR
STARTCHAR C142
ENCODING 98
SWIDTH 692 0
DWIDTH 9 0
BBX 9 15 0 -4
BITMAP
0000
0400
0a00
1200
1400
1400
2400
2e00
3300
e280
1c00
0000
0000
0000
0000
ENDCHAR
STARTCHAR C143
ENCODING 99
SWIDTH 692 0
DWIDTH 9 0
BBX 9 15 0 -4
BITMAP
0000
0000
0000
0000
0000
0e00
1900
3000
3000
d180
0e00
0000
0000
0000
0000
ENDCHAR
STARTCHAR C144
ENCODING 100
SWIDTH 692 0
DWIDTH 9 0
BBX 9 15 0 -4
BITMAP
0000
0100
0280
0280
0480
1d00
3500
6500
a200
2380
1c00
0000
0000
0000
0000
ENDCHAR
STARTCHAR C145
ENCODING 101
SWIDTH 692 0
DWIDTH 9 0
BBX 9 15 0 -4
BITMAP
0000
0000
0000
0000
0000
0e00
1900
1200
3c00
d180
0e00
0000
0000
0000
0000
ENDCHAR
STARTCHAR C146
ENCODING 102
SWIDTH 692 0
DWIDTH 9 0
BBX 9 15 0 -4
BITMAP
0000
0400
0a00
1200
1200
1400
2400
2800
3000
ef80
2800
4800
4800
4800
3000
ENDCHAR
STARTCHAR C147
ENCODING 103
SWIDTH 692 0
DWIDTH 9 0
BBX 9 15 0 -4
BITMAP
0000
0000
0000
0000
0000
1d00
3300
6100
a200
2380
1e00
1200
2400
2400
1800
ENDCHAR
STARTCHAR C150
ENCODING 104
SWIDTH 692 0
DWIDTH 9 0
BBX 9 15 0 -4
BITMAP
0000
0400
0a00
1200
1400
1400
2400
2e00
3200
e480
4300
0000
0000
0000
0000
ENDCHAR
STARTCHAR C151
ENCODING 105
SWIDTH 692 0
DWIDTH 9 0
BBX 9 15 0 -4
BITMAP
0000
0000
0400
0000
0800
0800
1000
1000
6000
9180
0e00
0000
0000
0000
0000
ENDCHAR
STARTCHAR C152
ENCODING 106
SWIDTH 692 0
DWIDTH 9 0
BBX 9 15 0 -4
BITMAP
0000
0000
0200
0000
0400
0400
0800
0800
3800
c880
1f00
2800
4800
9000
6000
ENDCHAR
STARTCHAR C153
ENCODING 107
SWIDTH 692 0
DWIDTH 9 0
BBX 9 15 0 -4
BITMAP
0000
0400
0a00
1200
1400
1400
2400
2e00
3200
ec80
4300
0000
0000
0000
0000
ENDCHAR
STARTCHAR C154
ENCODING 108
SWIDTH 692 0
DWIDTH 9 0
BBX 9 15 0 -4
BITMAP
0000
0400
0a00
1200
1400
2400
2800
3000
6000
a180
1e00
0000
0000
0000
0000
ENDCHAR
STARTCHAR C155
ENCODING 109
SWIDTH 692 0
DWIDTH 9 0
BBX 9 15 0 -4
BITMAP
0000
0000
0000
0000
0000
3e00
5500
5500
aa00
aa80
2b00
0000
0000
0000
0000
ENDCHAR
STARTCHAR C156
ENCODING 110
SWIDTH 692 0
DWIDTH 9 0
BBX 9 15 0 -4
BITMAP
0000
0000
0000
0000
0000
1600
2900
4900
5200
9280
1300
0000
0000
0000
0000
ENDCHAR
STARTCHAR C157
ENCODING 111
SWIDTH 692 0
DWIDTH 9 0
BBX 9 15 0 -4
BITMAP
0000
0000
0000
0000
0000
1c00
3200
6300
a280
2200
1c00
0000
0000
0000
0000
ENDCHAR
STARTCHAR C160
ENCODING 112
SWIDTH 692 0
DWIDTH 9 0
BBX 9 15 0 -4
BITMAP
0000
0000
0000
0000
0000
1600
3900
7100
b200
3280
5f00
5000
9000
9000
6000
ENDCHAR
STARTCHAR C161
ENCODING 113
SWIDTH 692 0
DWIDTH 9 0
BBX 9 15 0 -4
BITMAP
0000
0000
0000
0000
0000
1a00
3600
6200
a400
2780
1e00
0500
0900
0a00
0400
ENDCHAR
STARTCHAR C162
ENCODING 114
SWIDTH 692 0
DWIDTH 9 0
BBX 9 15 0 -4
BITMAP
0000
0000
0000
0000
1000
1c00
2200
2400
2400
c480
0300
0000
0000
0000
0000
ENDCHAR
STARTCHAR C163
ENCODING 115
SWIDTH 692 0
DWIDTH 9 0
BBX 9 15 0 -4
BITMAP
0000
0000
0000
0000
1000
1800
1400
2400
2200
d280
1f00
0000
0000
0000
0000
ENDCHAR
STARTCHAR C164
ENCODING 116
SWIDTH 692 0
DWIDTH 9 0
BBX 9 15 0 -4
BITMAP
0000
0400
0400
0800
0800
7e00
1000
1000
6000
9180
0e00
0000
0000
0000
0000
ENDCHAR
STARTCHAR C165
ENCODING 117
SWIDTH 692 0
DWIDTH 9 0
BBX 9 15 0 -4
BITMAP
0000
0000
0000
0000
0000
1100
3100
6100
a200
2380
1c00
0000
0000
0000
0000
ENDCHAR
STARTCHAR C166
ENCODING 118
SWIDTH 692 0
DWIDTH 9 0
BBX 9 15 0 -4
BITMAP
0000
0000
0000
0000
0000
3200
5200
5300
9480
2400
1800
0000
0000
0000
0000
ENDCHAR
STARTCHAR C167
ENCODING 119
SWIDTH 692 0
DWIDTH 9 0
BBX 9 15 0 -4
BITMAP
0000
0000
0000
0000
0000
6480
a480
a500
2980
4900
3600
0000
0000
0000
0000
ENDCHAR
STARTCHAR C170
ENCODING 120
SWIDTH 692 0
DWIDTH 9 0
BBX 9 15 0 -4
BITMAP
0000
0000
0000
0000
0000
1100
2a00
2400
cc00
1480
2300
0000
0000
0000
0000
ENDCHAR
STARTCHAR C171
ENCODING 121
SWIDTH 692 0
DWIDTH 9 0
BBX 9 15 0 -4
BITMAP
0000
0000
0000
0000
0000
1100
3100
6100
a200
2380
1e00
1400
2400
2800
1800
ENDCHAR
STARTCHAR C172
ENCODING 122
SWIDTH 692 0
DWIDTH 9 0
BBX 9 15 0 -4
BITMAP
0000
0000
0000
0000
0000
3800
4400
4400
9800
0580
1e00
1400
2400
2800
1800
ENDCHAR
STARTCHAR C173
ENCODING 123
SWIDTH 692 0
DWIDTH 9 0
BBX 9 15 0 -4
BITMAP
0300
0400
0400
0400
1800
6000
1000
1000
2000
2000
2000
1000
0000
0000
0000
ENDCHAR
STARTCHAR C174
ENCODING 124
SWIDTH 692 0
DWIDTH 9 0
BBX 9 15 0 -4
BITMAP
0000
0400
0400
0400
0800
0800
0800
0800
1000
1000
1000
0000
0000
0000
0000
ENDCHAR
STARTCHAR C175
ENCODING 125
SWIDTH 692 0
DWIDTH 9 0
BBX 9 15 0 -4
BITMAP
0800
0400
0400
0400
0800
0400
0e00
1000
2000
2000
2000
c000
0000
0000
0000
ENDCHAR
STARTCHAR C176
ENCODING 126
SWIDTH 692 0
DWIDTH 9 0
BBX 9 15 0 -4
BITMAP
0000
0000
3000
4980
4600
0000
0000
0000
0000
0000
0000
0000
0000
0000
0000
ENDCHAR
STARTCHAR C177
ENCODING 127
SWIDTH 692 0
DWIDTH 9 0
BBX 9 15 0 -4
BITMAP
0000
0000
0000
0000
0000
0000
0000
0000
0000
0000
0000
0000
0000
0000
0000
ENDCHAR
STARTCHAR C221
ENCODING 145
SWIDTH 692 0
DWIDTH 9 0
BBX 9 15 0 -4
BITMAP
0000
0000
0000
0000
0000
0000
0000
0000
0000
0000
0000
0000
0000
0000
0000
ENDCHAR
STARTCHAR C267
ENCODING 183
SWIDTH 692 0
DWIDTH 9 0
BBX 9 15 0 -4
BITMAP
0000
0000
0000
0000
0000
0000
0000
0000
0000
0000
0000
0000
0000
0000
0000
ENDCHAR
STARTCHAR C364
ENCODING 244
SWIDTH 692 0
DWIDTH 9 0
BBX 9 15 0 -4
BITMAP
0000
0000
0000
0000
0000
0000
0000
0000
0000
0000
0000
0000
0000
0000
0000
ENDCHAR
STARTCHAR C365
ENCODING 245
SWIDTH 692 0
DWIDTH 9 0
BBX 9 15 0 -4
BITMAP
0000
0000
0000
0000
0000
0000
0000
0000
0000
0000
0000
0000
0000
0000
0000
ENDCHAR
ENDFONT
